<svg width="50" height="48" viewBox="0 0 50 48" fill="none" xmlns="http://www.w3.org/2000/svg">
<path d="M44.1406 21.0777C44.1406 20.5548 44.1406 5.80967 44.1406 4.95703C44.1406 2.53389 42.1692 0.5625 39.7461 0.5625H4.39453C1.97139 0.5625 0 2.53389 0 4.95703C0 6.00537 0 30.1855 0 31.3242C0 33.7474 1.97139 35.7188 4.39453 35.7188H20.9977C22.3586 42.3969 28.2774 47.4375 35.3516 47.4375C43.4287 47.4375 50 40.8662 50 32.7891C50 28.0068 47.6963 23.7529 44.1406 21.0777ZM2.92969 4.95703C2.92969 4.14932 3.58682 3.49219 4.39453 3.49219H39.7461C40.5538 3.49219 41.2109 4.14932 41.2109 4.95703V6.42188H2.92969V4.95703ZM2.92969 9.35156H41.2109V12.2812H2.92969V9.35156ZM20.7031 32.7891H4.39453C3.58682 32.7891 2.92969 32.1319 2.92969 31.3242V15.2109H41.2109V19.365C39.4156 18.5783 37.4339 18.1406 35.3516 18.1406C27.2744 18.1406 20.7031 24.7119 20.7031 32.7891ZM35.3516 44.5078C28.8898 44.5078 23.6328 39.2508 23.6328 32.7891C23.6328 26.3273 28.8898 21.0703 35.3516 21.0703C41.8133 21.0703 47.0703 26.3273 47.0703 32.7891C47.0703 39.2508 41.8133 44.5078 35.3516 44.5078Z" fill="#000E2A"/>
</svg>
