<svg width="50" height="50" viewBox="0 0 50 50" fill="none" xmlns="http://www.w3.org/2000/svg">
<path d="M38.8512 29.5634C38.8432 29.5554 38.8355 29.5474 38.8275 29.5394C38.8241 29.5359 38.8199 29.5317 38.8157 29.5279L36.0157 26.7279C35.2287 25.9406 34.1824 25.5072 33.0692 25.5072C31.963 25.5072 30.9219 25.9356 30.1365 26.7138C30.1308 26.7192 30.1254 26.7249 30.1197 26.7302L28.6316 28.2187L21.7785 21.3652L23.2662 19.8771C23.2719 19.8718 23.2773 19.8661 23.2826 19.8607C24.8936 18.2349 24.8894 15.6016 23.2689 13.9811L20.4731 11.185C20.4678 11.1796 20.4628 11.1747 20.4578 11.1697C19.6709 10.3842 18.6253 9.95166 17.5137 9.95166C16.4055 9.95166 15.3633 10.3816 14.5775 11.1617C14.5668 11.1724 14.5561 11.183 14.5458 11.1941L13.2618 12.4778C12.5862 13.1533 12.0678 13.6718 12.0476 13.6924C10.0647 15.6749 9.60121 18.8353 10.7426 22.5917C11.7878 26.0321 14.0877 29.6511 17.218 32.7819C21.5881 37.152 26.9402 39.8665 31.1848 39.8665C33.284 39.8665 35.0559 39.2047 36.3018 37.9584C36.3277 37.9328 37.0445 37.2161 37.8956 36.365L38.8275 35.4331C38.829 35.4315 38.8306 35.43 38.8325 35.4281C40.4335 33.8217 40.4488 31.2167 38.876 29.5909C38.868 29.5813 38.8592 29.5718 38.8512 29.5634ZM36.7664 33.3506C36.7577 33.3594 36.7489 33.3682 36.7401 33.3773L35.8242 34.2932C34.9876 35.1298 34.2812 35.8363 34.2358 35.8813C33.5354 36.5817 32.5089 36.9368 31.1848 36.9368C27.7412 36.9368 23.0724 34.4928 19.2898 30.7105C16.4932 27.9139 14.4535 24.7283 13.5456 21.7398C12.7453 19.1066 12.9543 16.9284 14.1201 15.7626L15.3332 14.5495L16.6374 13.2453C16.6424 13.2403 16.647 13.2357 16.6515 13.2308C16.8839 13.0053 17.189 12.8813 17.5137 12.8813C17.8398 12.8813 18.1469 13.0069 18.38 13.235C18.383 13.2384 18.3865 13.2418 18.3903 13.2453L21.1971 16.0525C21.6797 16.5351 21.6797 17.3201 21.1971 17.8027C21.1964 17.8035 21.1956 17.8046 21.1945 17.8054V17.8057L18.6707 20.3295C18.0988 20.9017 18.0988 21.8291 18.6707 22.4013L27.5959 31.3262C27.8706 31.6012 28.2433 31.7553 28.6316 31.7553C29.0203 31.7553 29.393 31.6008 29.6677 31.3262L32.1754 28.8176C32.1846 28.8092 32.1934 28.8001 32.2021 28.7913C32.4352 28.5628 32.7427 28.4369 33.0692 28.4369C33.3996 28.4369 33.7101 28.5659 33.9439 28.7993L36.7435 31.5985L36.7496 31.605C36.7527 31.6081 36.7558 31.6111 36.7584 31.6142C37.2345 32.0929 37.2368 32.8685 36.7664 33.3506Z" fill="#000E2A"/>
<path d="M42.6777 7.32231C37.9559 2.60048 31.678 0 25 0C18.322 0 12.0441 2.60048 7.32231 7.32231C2.60048 12.0445 0 18.3224 0 25C0 31.6776 2.60048 37.9559 7.32231 42.6777C12.0441 47.3995 18.3224 50 25 50C31.6776 50 37.9555 47.3995 42.6777 42.6777C47.3995 37.9559 50 31.678 50 25C50 18.3224 47.3995 12.0445 42.6777 7.32231ZM25 47.0703C12.8304 47.0703 2.92969 37.1693 2.92969 25C2.92969 12.8307 12.8304 2.93007 25 2.92969C37.1696 2.93007 47.0703 12.8307 47.0703 25C47.0699 37.1696 37.1693 47.0703 25 47.0703Z" fill="#000E2A"/>
</svg>
