<svg width="73" height="46" viewBox="0 0 73 46" fill="none" xmlns="http://www.w3.org/2000/svg">
<g clip-path="url(#clip0_506_158)">
<path d="M34.9941 46L31.5521 42.3537V23.9817C31.6955 23.9817 1.29077 6.17073 0 0L34.9941 22.439V46Z" fill="#000E2A"/>
<path d="M28.6837 38.5671L26.1022 35.7622V26.5061C26.1022 26.5061 10.8998 19.7744 7.7446 12.6219L28.6837 25.3841V38.5671Z" fill="#000E2A"/>
<path d="M38.0059 46L41.4479 42.3537V23.9817C41.4479 23.9817 71.8527 6.31098 73.1434 0L38.0059 22.439V46Z" fill="#000E2A"/>
<path d="M44.3163 38.5671L46.8978 35.7622V26.5061C46.8978 26.5061 62.1002 19.7744 65.2554 12.6219L44.3163 25.3841V38.5671Z" fill="#000E2A"/>
</g>
<defs>
<clipPath id="clip0_506_158">
<rect width="73" height="46" fill="white"/>
</clipPath>
</defs>
</svg>
