<svg width="50" height="48" viewBox="0 0 50 48" fill="none" xmlns="http://www.w3.org/2000/svg">
<path d="M16.3086 21.0703H7.32422C6.51523 21.0703 5.85938 21.7262 5.85938 22.5352C5.85938 23.3441 6.51523 24 7.32422 24H16.3086C17.1176 24 17.7734 23.3441 17.7734 22.5352C17.7734 21.7262 17.1176 21.0703 16.3086 21.0703Z" fill="#000E2A"/>
<path d="M16.3086 26.9297H7.32422C6.51523 26.9297 5.85938 27.5855 5.85938 28.3945C5.85938 29.2035 6.51523 29.8594 7.32422 29.8594H16.3086C17.1176 29.8594 17.7734 29.2035 17.7734 28.3945C17.7734 27.5855 17.1176 26.9297 16.3086 26.9297Z" fill="#000E2A"/>
<path d="M44.1406 21.0777C44.1406 20.5548 44.1406 5.80967 44.1406 4.95703C44.1406 2.53389 42.1692 0.5625 39.7461 0.5625H4.39453C1.97139 0.5625 0 2.53389 0 4.95703C0 6.00537 0 30.1855 0 31.3242C0 33.7474 1.97139 35.7188 4.39453 35.7188H20.9977C22.3586 42.3969 28.2774 47.4375 35.3516 47.4375C43.4287 47.4375 50 40.8662 50 32.7891C50 28.0068 47.6963 23.7529 44.1406 21.0777ZM2.92969 4.95703C2.92969 4.14932 3.58682 3.49219 4.39453 3.49219H39.7461C40.5538 3.49219 41.2109 4.14932 41.2109 4.95703V6.42188H2.92969V4.95703ZM2.92969 9.35156H41.2109V12.2812H2.92969V9.35156ZM20.7031 32.7891H4.39453C3.58682 32.7891 2.92969 32.1319 2.92969 31.3242V15.2109H41.2109V19.365C39.4156 18.5783 37.4339 18.1406 35.3516 18.1406C27.2744 18.1406 20.7031 24.7119 20.7031 32.7891ZM35.3516 44.5078C28.8898 44.5078 23.6328 39.2508 23.6328 32.7891C23.6328 26.3273 28.8898 21.0703 35.3516 21.0703C41.8133 21.0703 47.0703 26.3273 47.0703 32.7891C47.0703 39.2508 41.8133 44.5078 35.3516 44.5078Z" fill="#000E2A"/>
<path d="M42.2467 28.8236C41.6747 28.2515 40.7472 28.2515 40.1752 28.8237L33.8867 35.112L30.5279 31.7534C29.9559 31.1813 29.0284 31.1813 28.4563 31.7534C27.8843 32.3254 27.8843 33.2529 28.4563 33.8249L32.8509 38.2195C33.1369 38.5055 33.5118 38.6485 33.8867 38.6485C34.2616 38.6485 34.6365 38.5055 34.9224 38.2194L42.2467 30.8952C42.8187 30.3231 42.8187 29.3956 42.2467 28.8236Z" fill="#000E2A"/>
</svg>
