<svg width="45" height="46" viewBox="0 0 45 46" fill="none" xmlns="http://www.w3.org/2000/svg">
<circle cx="22.5" cy="23" r="22.5" fill="#4CA1DA"/>
<path d="M34.077 29.3922H30.8462V26.1615C30.8462 25.9167 30.7489 25.6819 30.5758 25.5088C30.4027 25.3357 30.1679 25.2384 29.9231 25.2384C29.6783 25.2384 29.4435 25.3357 29.2704 25.5088C29.0973 25.6819 29 25.9167 29 26.1615V29.3922H25.7693C25.5245 29.3922 25.2897 29.4895 25.1166 29.6626C24.9434 29.8357 24.8462 30.0705 24.8462 30.3153C24.8462 30.5601 24.9434 30.7949 25.1166 30.968C25.2897 31.1412 25.5245 31.2384 25.7693 31.2384H29V34.4692C29 34.714 29.0973 34.9488 29.2704 35.1219C29.4435 35.295 29.6783 35.3922 29.9231 35.3922C30.1679 35.3922 30.4027 35.295 30.5758 35.1219C30.7489 34.9488 30.8462 34.714 30.8462 34.4692V31.2384H34.077C34.3218 31.2384 34.5566 31.1412 34.7297 30.968C34.9028 30.7949 35 30.5601 35 30.3153C35 30.0705 34.9028 29.8357 34.7297 29.6626C34.5566 29.4895 34.3218 29.3922 34.077 29.3922Z" fill="white"/>
<path d="M23 35.3923H13.7692C13.5244 35.3923 13.2896 35.295 13.1165 35.1219C12.9434 34.9488 12.8462 34.714 12.8462 34.4692C12.8493 31.7772 13.9201 29.1964 15.8237 27.2929C17.7272 25.3893 20.308 24.3185 23 24.3154C24.7841 24.3209 26.5103 23.6823 27.8613 22.5169C29.2123 21.3516 30.0973 19.7378 30.3537 17.9722C30.6101 16.2065 30.2206 14.4077 29.2569 12.9062C28.2931 11.4048 26.8198 10.3016 25.1078 9.79946C23.3958 9.29731 21.56 9.42992 19.938 10.1729C18.3159 10.9159 17.0165 12.2194 16.2785 13.8438C15.5406 15.4682 15.4137 17.3043 15.9212 19.0148C16.4287 20.7252 17.5365 22.1951 19.0409 23.1541C16.6943 23.976 14.6606 25.5058 13.2204 27.5325C11.7801 29.5592 11.0043 31.9829 11 34.4692C11 35.2036 11.2918 35.908 11.8111 36.4273C12.3304 36.9467 13.0348 37.2384 13.7692 37.2384H23C23.2448 37.2384 23.4796 37.1412 23.6527 36.9681C23.8258 36.795 23.9231 36.5602 23.9231 36.3154C23.9231 36.0705 23.8258 35.8357 23.6527 35.6626C23.4796 35.4895 23.2448 35.3923 23 35.3923ZM17.4615 16.9307C17.4615 15.8353 17.7864 14.7645 18.3949 13.8537C19.0035 12.9429 19.8685 12.2331 20.8805 11.8139C21.8925 11.3947 23.0061 11.285 24.0805 11.4987C25.1549 11.7124 26.1417 12.2399 26.9163 13.0145C27.6909 13.789 28.2183 14.7759 28.432 15.8502C28.6457 16.9246 28.5361 18.0382 28.1169 19.0502C27.6977 20.0622 26.9878 20.9272 26.077 21.5358C25.1662 22.1444 24.0954 22.4692 23 22.4692C21.5316 22.4677 20.1237 21.8837 19.0853 20.8454C18.047 19.8071 17.463 18.3992 17.4615 16.9307Z" fill="white"/>
</svg>
